<?xml version="1.0" encoding="UTF-8" standalone="no"?>
<!-- Created with Inkscape (http://www.inkscape.org/) -->

<svg
   version="1.1"
   id="svg2"
   width="1122.52"
   height="793.70667"
   viewBox="0 0 1122.52 793.70667"
   sodipodi:docname="heineken-seeklogo.com.eps"
   xmlns:inkscape="http://www.inkscape.org/namespaces/inkscape"
   xmlns:sodipodi="http://sodipodi.sourceforge.net/DTD/sodipodi-0.dtd"
   xmlns="http://www.w3.org/2000/svg"
   xmlns:svg="http://www.w3.org/2000/svg">
  <defs
     id="defs6" />
  <sodipodi:namedview
     id="namedview4"
     pagecolor="none"
     bordercolor="#000000"
     borderopacity="0.25"
     inkscape:showpageshadow="2"
     inkscape:pageopacity="0.0"
     inkscape:pagecheckerboard="0"
     inkscape:deskcolor="#d1d1d1" />
  <g
     id="g8"
     inkscape:groupmode="layer"
     inkscape:label="ink_ext_XXXXXX"
     transform="matrix(1.3333333,0,0,-1.3333333,0,793.70667)">
    <g
       id="g10"
       transform="scale(0.1)">
      <path
         d="M 0,0 V 5952.75 H 8418.89 V 0 H 0"
         style="fill:none;fill-opacity:1;fill-rule:nonzero;stroke:none"
         id="path12" />
      <path
         d="m 7234.96,2358.91 c -64.9,0 -117.57,52.59 -117.57,117.23 0,64.91 52.67,117.24 117.57,117.24 64.58,0 116.91,-52.33 116.91,-117.24 0,-64.64 -52.33,-117.23 -116.91,-117.23 z m 0,264.12 c -81.28,0.16 -147.2,-65.52 -147.2,-146.89 0,-81.11 65.92,-146.79 147.2,-146.79 80.97,0 146.8,65.68 146.8,146.79 0,81.37 -65.83,147.05 -146.8,146.89"
         style="fill:#1c8230;fill-opacity:1;fill-rule:nonzero;stroke:none"
         id="path14" />
      <path
         d="m 7239.83,2495.56 c -12.32,0 -29.03,0 -29.03,0 v 36.38 c 0,0 14.16,0 25.52,0 11.11,0 24.39,-4.56 24.39,-17.27 0,-10.87 -8.47,-19.11 -20.88,-19.11 z m 34.55,-19.12 c 11.94,4.47 23.7,19.12 23.7,40.31 0,33.69 -30.49,44.09 -48.17,44.09 -12.4,0 -75.68,0 -75.68,0 v -158.25 h 36.24 v 61.77 c 0.33,0 2,0 13.59,0 18.27,0 28.9,-4.89 34.02,-21.84 3.76,-11.69 5.52,-23.06 12.96,-39.93 15.17,0 21.76,-0.08 39.44,-0.08 -4.27,9.1 -12,21.45 -14.55,38.64 -2.58,16.96 -8.42,26.72 -21.55,35.29"
         style="fill:#1c8230;fill-opacity:1;fill-rule:nonzero;stroke:none"
         id="path16" />
      <path
         d="m 2282.52,1930.89 c -17.51,48.32 -3.53,196.2 77.98,224.16 85.72,29.36 138.35,-14.79 163.96,-101.2 9.51,-31.98 7.43,-65.83 -3.05,-78.55 -15.19,-18.41 -42.32,-29.46 -66.68,-37.61 l -64.2,-21.27 c -63.08,-21.46 -93.2,-25.76 -108.01,14.47 z m 404.75,-179.39 c -41.58,-41.68 -95.73,-83.19 -148.93,-100.06 -50.21,-16.16 -193.31,-28.69 -235.42,89.53 -9.1,25.56 -1.68,33.45 21.46,40.31 34.54,10.25 123.47,36.41 217.36,71.61 85.2,31.75 161.19,70.79 184.96,86.73 42.64,27.99 48.96,67.35 30.23,109.69 -59.83,134.39 -195.07,275.12 -419.96,232.32 -178.72,-34.08 -306.73,-194.97 -306.73,-378.99 0,-227.92 137.32,-361.2 312.09,-402.49 161.56,-38.48 351.57,39.87 432.83,171.55 32.24,50.73 -58.49,110.92 -87.89,79.8"
         style="fill:#1c8230;fill-opacity:1;fill-rule:nonzero;stroke:none"
         id="path18" />
      <path
         d="m 4375.87,1930.89 c -10.49,28.91 -9.71,93.4 10.05,146.56 13.29,35.72 33.13,63.62 67.92,77.6 39.19,15.72 72.71,11.41 98.89,-3.68 30.01,-17.28 51.38,-51.4 65.05,-97.52 9.51,-31.98 7.44,-65.83 -3.03,-78.55 -15.21,-18.41 -38.91,-27.66 -66.68,-37.61 -27.79,-9.95 -52.49,-17.93 -64.2,-21.61 -63.53,-19.88 -93.22,-25.42 -108,14.81 z M 4780.6,1751.5 c -41.59,-41.68 -95.73,-83.19 -148.93,-100.06 -50.21,-16.16 -193.31,-28.69 -235.41,89.53 -9.1,25.56 -1.7,33.45 21.45,40.31 34.53,10.25 123.47,36.41 217.36,71.61 85.19,31.75 161.2,70.79 184.96,86.73 42.65,27.99 48.95,67.35 30.24,109.69 -59.85,134.39 -195.08,275.12 -419.97,232.32 -178.73,-34.08 -306.73,-194.97 -306.73,-378.99 0,-227.92 137.33,-361.2 312.1,-402.49 161.55,-38.48 351.55,39.87 432.81,171.55 32.25,50.73 -58.49,110.92 -87.88,79.8"
         style="fill:#1c8230;fill-opacity:1;fill-rule:nonzero;stroke:none"
         id="path20" />
      <path
         d="m 5971.65,1930.89 c -10.47,28.91 -9.67,93.4 10.08,146.56 13.28,35.72 33.12,63.62 67.91,77.6 39.2,15.72 72.69,11.41 98.9,-3.68 30,-17.28 51.38,-51.4 65.04,-97.52 9.52,-31.98 7.45,-65.83 -3.04,-78.55 -15.21,-18.41 -38.91,-27.66 -66.68,-37.61 -27.8,-9.95 -52.46,-17.93 -64.21,-21.61 -63.49,-19.88 -93.19,-25.42 -108,14.81 z m 404.73,-179.39 c -41.57,-41.68 -95.73,-83.19 -148.92,-100.06 -50.2,-16.16 -193.31,-28.69 -235.4,89.53 -9.1,25.56 -1.72,33.45 21.44,40.31 34.56,10.25 123.48,36.41 217.36,71.61 85.2,31.75 161.2,70.79 184.96,86.73 42.64,27.99 48.96,67.35 30.24,109.69 -59.84,134.39 -195.07,275.12 -419.98,232.32 -178.71,-34.08 -306.71,-194.97 -306.71,-378.99 0,-227.92 137.32,-361.2 312.09,-402.49 161.56,-38.48 351.56,39.87 432.83,171.55 32.22,50.73 -58.52,110.92 -87.91,79.8"
         style="fill:#1c8230;fill-opacity:1;fill-rule:nonzero;stroke:none"
         id="path22" />
      <path
         d="m 1668.98,1708.25 c 0,-30.52 -9.61,-64.04 -33.16,-74.55 l -50.96,-23.03 c -9.13,-4.19 -11.7,-10.89 -11.7,-21.01 0,-2.52 0.19,-4.17 0.69,-7.58 l 6.01,-57.86 c 2.67,-15.74 13.42,-18.31 34.28,-18.31 h 369.16 c 20.84,0 31.6,2.57 34.27,18.31 l 5.99,57.86 c 0.5,3.41 0.72,5.06 0.72,7.58 0,10.12 -2.58,16.82 -11.71,21.01 l -50.97,23.03 c -23.54,10.51 -33.16,44.03 -33.16,74.55 v 639.56 c 0,30.54 9.62,64.05 33.16,74.55 l 50.97,23.06 c 9.13,4.17 11.71,10.9 11.71,21.01 0,2.54 -0.22,4.16 -0.72,7.57 l -5.99,43.44 c -2.67,15.74 -13.43,18.32 -34.27,18.32 h -351.93 c -20.84,0 -31.58,-2.58 -34.25,-18.32 l -6.01,-43.44 c -0.49,-3.41 -0.7,-5.03 -0.7,-7.57 0,-10.11 2.57,-16.84 11.71,-21.01 l 41.53,-23.06 c 23.74,-13.56 25.33,-44.01 25.33,-74.55 v -178.37 c 0,-12.4 -10.07,-22.45 -22.47,-22.45 h -200.02 c -12.4,0 -22.45,10.05 -22.45,22.45 v 178.37 c 0,30.54 1.57,60.99 25.3,74.55 l 41.56,23.06 c 9.13,4.17 11.71,10.9 11.71,21.01 0,2.54 -0.22,4.16 -0.72,7.57 l -5.99,43.44 c -2.68,15.74 -13.43,18.32 -34.28,18.32 h -351.9 c -20.86,0 -31.6,-2.58 -34.28,-18.32 l -6,-43.44 c -0.49,-3.41 -0.71,-5.03 -0.71,-7.57 0,-10.11 2.58,-16.84 11.72,-21.01 l 50.95,-23.06 c 23.55,-10.5 33.16,-44.01 33.16,-74.55 v -639.56 c 0,-30.52 -9.61,-64.04 -33.16,-74.55 l -50.95,-23.03 c -9.14,-4.19 -11.72,-10.89 -11.72,-21.01 0,-2.52 0.22,-4.17 0.71,-7.58 l 6,-57.86 c 2.68,-15.74 13.42,-18.31 34.28,-18.31 h 369.15 c 20.84,0 31.6,2.57 34.28,18.31 l 6.01,57.86 c 0.49,3.41 0.7,5.06 0.7,7.58 0,10.12 -2.58,16.82 -11.71,21.01 l -50.95,23.03 c -23.55,10.51 -33.16,44.03 -33.16,74.55 v 260.02 c 0,12.4 10.05,22.46 22.45,22.46 h 200.02 c 12.4,0 22.47,-10.06 22.47,-22.46 v -260.02"
         style="fill:#1c8230;fill-opacity:1;fill-rule:nonzero;stroke:none"
         id="path24" />
      <path
         d="m 3124.15,2428.03 c 0,-71.02 -59.65,-128.6 -133.25,-128.6 -73.58,0 -133.23,57.58 -133.23,128.6 0,71.01 59.65,128.6 133.23,128.6 73.6,0 133.25,-57.59 133.25,-128.6"
         style="fill:#1c8230;fill-opacity:1;fill-rule:nonzero;stroke:none"
         id="path26" />
      <path
         d="m 2845.16,1505.91 c -20.01,0 -30.32,2.46 -32.88,17.57 l -5.77,57.66 c -0.48,3.27 -0.4,4.83 -0.4,7.29 0,9.7 2.65,15.64 10.96,20.14 l 39.66,22.1 c 22.02,10.65 31.82,42.23 31.82,71.54 v 365.18 c 0,30.55 -5.23,69.61 -32.05,82.99 l -25.4,14.63 c -9.13,4.18 -11.7,10.9 -11.7,21 0,2.53 0.19,4.16 0.69,7.57 l 6.01,43.44 c 2.68,15.77 13.43,18.32 34.28,18.32 h 249.38 c 12.4,0 22.47,-10.05 22.47,-22.48 v -530.65 c 0,-29.31 9.78,-60.89 31.81,-71.54 l 39.65,-22.1 c 8.3,-4.5 10.96,-10.44 10.96,-20.14 0,-2.46 0.08,-4.02 -0.41,-7.29 l -5.74,-57.66 c -2.57,-15.11 -12.89,-17.57 -32.89,-17.57 h -330.45"
         style="fill:#1c8230;fill-opacity:1;fill-rule:nonzero;stroke:none"
         id="path28" />
      <path
         d="m 3599.94,2216.46 c 0,0 14.02,6.83 39.29,19.09 49.93,23.45 147.71,65.45 228.49,39.69 70.01,-22.35 130.5,-73.22 130.5,-206.58 0,-151.53 0,-344.61 0,-404.12 0,-17.24 0.75,-24.34 8.75,-28.74 10.74,-5.89 29.45,11.71 47.32,20.93 18.06,9.3 28.05,-1.63 39.11,-13.85 9.69,-10.68 21.29,-25.8 11.85,-45.59 -29.84,-62.54 -96.73,-98.49 -174.96,-98.49 -73.93,0 -168.08,42.4 -168.08,153.2 0,110.8 0,339.46 0,389.06 0,59.46 -43.14,80.08 -76.65,75.92 -50.57,-6.25 -87.36,-48.57 -87.36,-124 l -0.03,-290.77 c 0,-29.31 9.82,-60.89 31.82,-71.54 l 39.67,-22.1 c 8.3,-4.5 10.95,-10.44 10.95,-20.14 0,-2.46 0.08,-4.02 -0.4,-7.29 l -5.76,-57.66 c -2.56,-15.11 -12.87,-17.57 -32.87,-17.57 h -330.47 c -19.98,0 -30.3,2.46 -32.88,17.57 l -5.74,57.66 c -0.49,3.27 -0.41,4.83 -0.41,7.29 0,9.7 2.66,15.64 10.96,20.14 l 39.66,22.1 c 22.02,10.65 31.81,42.23 31.81,71.54 v 365.18 c 0,30.55 -5.22,69.61 -32.04,82.99 l -25.39,14.63 c -9.13,4.18 -11.72,10.9 -11.72,21 0,2.53 0.2,4.16 0.71,7.57 l 6,43.44 c 2.68,15.77 13.42,18.32 34.26,18.32 h 234.95 c 18.51,0 25.66,-10.54 30.95,-22.48 l 7.71,-16.4"
         style="fill:#1c8230;fill-opacity:1;fill-rule:nonzero;stroke:none"
         id="path30" />
      <path
         d="m 6824.41,2216.46 c 0,0 14.02,6.83 39.3,19.09 49.93,23.45 147.7,65.45 228.49,39.69 70.02,-22.35 130.49,-73.22 130.49,-206.58 0,-151.53 0,-344.61 0,-404.12 0,-17.24 0.75,-24.34 8.75,-28.74 10.74,-5.89 29.46,11.71 47.32,20.93 18.08,9.3 28.07,-1.63 39.12,-13.85 9.69,-10.68 21.27,-25.8 11.84,-45.59 -29.85,-62.54 -96.72,-98.49 -174.96,-98.49 -73.93,0 -168.09,42.4 -168.09,153.2 0,110.8 0,339.46 0,389.06 0,59.46 -43.12,80.08 -76.64,75.92 -50.57,-6.25 -87.35,-48.57 -87.35,-124 l -0.03,-290.77 c 0,-29.31 9.8,-60.89 31.81,-71.54 l 39.67,-22.1 c 8.3,-4.5 10.96,-10.44 10.96,-20.14 0,-2.46 0.08,-4.02 -0.4,-7.29 l -5.76,-57.66 c -2.55,-15.11 -12.88,-17.57 -32.89,-17.57 h -330.43 c -20.03,0 -30.34,2.46 -32.9,17.57 l -5.75,57.66 c -0.49,3.27 -0.41,4.83 -0.41,7.29 0,9.7 2.65,15.64 10.95,20.14 l 39.67,22.1 c 22.01,10.65 31.82,42.23 31.82,71.54 v 365.18 c 0,30.55 -5.23,69.61 -32.05,82.99 l -25.39,14.63 c -9.15,4.18 -11.74,10.9 -11.74,21 0,2.53 0.23,4.16 0.73,7.57 l 6.01,43.44 c 2.68,15.77 13.4,18.32 34.28,18.32 h 234.91 c 18.53,0 25.67,-10.54 30.97,-22.48 l 7.7,-16.4"
         style="fill:#1c8230;fill-opacity:1;fill-rule:nonzero;stroke:none"
         id="path32" />
      <path
         d="m 5627.9,1692.12 c 17.55,-28.15 38.95,-50.8 60.98,-61.45 l 39.65,-22.1 c 8.3,-4.5 10.96,-10.44 10.96,-20.14 0,-2.46 0.05,-4.02 -0.43,-7.29 l -5.73,-57.66 c -2.58,-15.11 -12.89,-17.57 -32.89,-17.57 h -199.47 c -34.1,0 -36.67,9.88 -52.07,37.7 l -167.26,304.56 -62.82,-60.25 -0.02,-85.71 c 0,-29.31 13.81,-60.05 36.6,-71.54 l 39.65,-22.1 c 8.3,-4.5 10.98,-10.44 10.98,-20.14 0,-2.46 0.07,-4.02 -0.42,-7.29 l -5.76,-57.66 c -2.56,-15.11 -12.88,-17.57 -32.88,-17.57 h -330.45 c -20,0 -30.32,2.46 -32.9,17.57 l -5.72,57.66 c -0.51,3.27 -0.43,4.83 -0.43,7.29 0,9.7 2.68,15.64 10.96,20.14 l 39.67,22.1 c 22.03,10.65 31.81,42.23 31.81,71.54 v 653.8 c 0,29.28 -9.1,59.87 -31.81,71.49 l -39.67,22.13 c -8.28,4.5 -10.96,10.46 -10.96,20.17 0,2.41 -0.08,3.99 0.43,7.24 l 5.72,41.15 c 2.58,15.11 12.9,17.57 32.9,17.57 h 239.49 c 23.55,0 42.62,-19.1 42.62,-42.66 v -496.27 l 106.46,96.11 c 15.15,13.09 40.06,34.86 49.75,44.53 9.7,9.66 11.69,24.06 -2.13,29.8 l -37.6,17.02 c -8.32,3.79 -10.69,9.91 -10.69,19.14 0,2.3 0.2,3.78 0.66,6.89 l 5.46,52.74 c 2.44,14.34 12.24,16.67 31.24,16.67 h 286.76 c 19.01,0 28.81,-2.33 31.25,-16.67 l 5.46,-52.74 c 0.42,-3.1 0.54,-4.61 0.64,-6.89 0.58,-11.45 -12.86,-16.93 -21.19,-20.72 0,0 -20.39,-5.91 -38.89,-16.48 -18.52,-10.56 -38.26,-26.37 -63.24,-48.72 L 5452,2011.38 5627.9,1692.12"
         style="fill:#1c8230;fill-opacity:1;fill-rule:nonzero;stroke:none"
         id="path34" />
      <path
         d="m 5376.08,3094.14 0.3,4.9 h -32.76 c -1.27,-29.34 16.59,-49.02 46.27,-49.02 32.37,0 51.96,19.68 51.96,52.09 0,18.7 -7.45,36.69 -27.02,41.43 v 0.63 c 17.11,6.84 21.61,24.68 21.61,41.27 0,28.03 -16.29,45.92 -44.61,45.92 -32.13,0 -42.25,-23.47 -41.21,-51.86 h 30.42 v 3.66 c 0,7.69 1.61,18.24 11.68,18.24 10.16,0 12.04,-10.15 12.04,-17.91 0,-19.54 -7.93,-23.24 -26.9,-23.24 v -30.43 c 19.83,0.68 26.43,-4.8 26.43,-24.52 0,-10.37 -0.9,-24.83 -15.1,-24.83 -9.34,0 -13.11,7.92 -13.11,13.67"
         style="fill:#b2b1b1;fill-opacity:1;fill-rule:nonzero;stroke:none"
         id="path36" />
      <path
         d="m 5320.21,3228.74 h -94.95 v -30.19 h 47.25 l -54.82,-145.69 h 36.36 l 66.16,175.88"
         style="fill:#b2b1b1;fill-opacity:1;fill-rule:nonzero;stroke:none"
         id="path38" />
      <path
         d="m 5131.65,3080.47 c -12.09,0 -14.59,15.94 -14.59,24.83 0,9.12 2.5,25.53 14.36,25.53 11.29,0 15.45,-16.74 15.45,-25.53 0,-8.55 -3.36,-24.83 -15.22,-24.83 m -0.39,123.7 c 9.45,0 10.7,-12.17 10.7,-18.73 0,-6.27 0,-19.73 -10.7,-19.73 -8.73,0 -9.77,13.46 -9.77,19.95 0,6.49 1.43,18.51 9.77,18.51 m 20.51,-56.57 v 0.46 c 16.29,5.45 24.1,20.45 24.1,37.19 0,25.78 -17.36,46.11 -43.87,46.11 -26.95,0 -44.06,-20.33 -44.06,-46.11 0,-16.74 8.32,-31.74 23.89,-37.09 v -0.56 c -21.68,-7.32 -30.55,-23.84 -30.55,-46.52 0,-28.94 21.31,-51.06 50.72,-51.06 29.46,0 50.22,22.12 50.22,51.06 0,22.13 -8.34,39.56 -30.45,46.52"
         style="fill:#b2b1b1;fill-opacity:1;fill-rule:nonzero;stroke:none"
         id="path40" />
      <path
         d="m 5033.49,3228.74 h -50.45 v -30.19 h 16.87 v -145.69 h 33.58 v 175.88"
         style="fill:#b2b1b1;fill-opacity:1;fill-rule:nonzero;stroke:none"
         id="path42" />
      <path
         d="m 3066.52,3228.74 h -76.92 v -175.88 h 77.29 v 32.74 h -39.3 v 39.65 h 34.18 v 32.59 h -34.18 v 38.3 h 38.93 v 32.6"
         style="fill:#b2b1b1;fill-opacity:1;fill-rule:nonzero;stroke:none"
         id="path44" />
      <path
         d="m 3406.85,3094.31 c -12.54,0 -22.35,-9.83 -22.35,-21.95 0,-12.3 9.81,-22.34 22.35,-22.34 12.25,0 21.71,10.04 21.71,22.34 0,12.12 -9.46,21.95 -21.71,21.95"
         style="fill:#b2b1b1;fill-opacity:1;fill-rule:nonzero;stroke:none"
         id="path46" />
      <path
         d="m 3358.64,3228.74 h -98.2 v -32.6 h 29.85 v -143.28 h 38.36 v 143.28 h 29.99 v 32.6"
         style="fill:#b2b1b1;fill-opacity:1;fill-rule:nonzero;stroke:none"
         id="path48" />
      <path
         d="m 3207.25,3189.08 v 33.96 c -10.82,5.37 -21.65,8.32 -34.11,8.32 -32.79,0 -50.32,-23.6 -50.32,-51.62 0,-25.41 13.4,-38.6 35.49,-52.03 10.58,-7.36 22.61,-12.26 22.61,-25.6 0,-11.79 -9.59,-19.25 -22.24,-19.25 -11.02,0 -19.96,3.58 -28.79,9.46 v -33.4 c 8.83,-5.71 22.04,-8.9 32.87,-8.9 35.68,0 55.53,23.71 55.53,54.95 0,47.63 -58.11,49.36 -58.11,78.19 0,10.59 7.63,17.32 19.11,17.32 10.75,0 19.95,-5.23 27.96,-11.4"
         style="fill:#b2b1b1;fill-opacity:1;fill-rule:nonzero;stroke:none"
         id="path50" />
      <path
         d="m 5216.81,4058.31 c -2.29,-4.26 -5.34,-8.32 -9.5,-11.64 0,0 -20.17,-17.04 -54.8,-44.05 -109.86,-85.66 -355.72,-276.73 -494.53,-379.72 3.36,-10.64 6.83,-21.86 10.45,-33.55 140.39,104.57 376.89,288.39 484.08,371.94 34.63,27.02 54.8,44.05 54.8,44.05 13.23,10.54 16.08,28.03 13.73,38.08 -1.6,6.93 -3.61,13.06 -4.23,14.89 z M 3747.5,3622.91 c -138.81,103.01 -384.66,294.06 -494.54,379.72 -34.63,27.01 -54.79,44.06 -54.79,44.06 -4.18,3.33 -7.21,7.37 -9.49,11.63 -0.61,-1.82 -2.64,-7.95 -4.24,-14.88 -2.35,-10.07 0.51,-27.54 13.73,-38.08 0,0 20.16,-17.04 54.79,-44.06 107.19,-83.55 343.71,-267.36 484.1,-371.94 3.6,11.69 7.1,22.9 10.44,33.55 z m 1105.81,-707.04 c 4.49,-16.3 -3.48,-32.13 -11.27,-38.89 -6.42,-5.56 -12.71,-9.9 -12.71,-9.9 0,0 -6.08,-4.64 -13.34,-9.02 -8.85,-5.33 -26.37,-8.03 -40.47,1.29 0,0 -22.42,13.9 -58.81,38.51 -115.45,78.01 -373.13,252.79 -513.97,352.97 -140.86,-100.18 -398.53,-274.96 -513.96,-352.99 -36.39,-24.59 -58.82,-38.49 -58.82,-38.49 -14.12,-9.32 -31.63,-6.62 -40.47,-1.28 -7.27,4.36 -13.35,9.01 -13.35,9.01 0,0 -6.29,4.34 -12.71,9.9 -7.8,6.76 -15.76,22.59 -11.27,38.89 0,0 1.14,4.59 3.33,13 2.27,-4.44 5.11,-8.11 7.94,-10.56 6.42,-5.56 12.71,-9.9 12.71,-9.9 0,0 6.08,-4.65 13.35,-9.02 8.84,-5.35 26.35,-8.03 40.47,1.28 0,0 22.43,13.91 58.82,38.5 115.43,78.03 373.1,252.79 513.96,352.99 140.84,-100.2 398.52,-274.96 513.97,-352.98 36.39,-24.6 58.81,-38.51 58.81,-38.51 14.1,-9.31 31.62,-6.63 40.47,-1.29 7.26,4.38 13.34,9.03 13.34,9.03 0,0 6.29,4.34 12.71,9.9 2.83,2.45 5.67,6.12 7.95,10.56 2.19,-8.41 3.32,-13 3.32,-13"
         style="fill:#b2b1b1;fill-opacity:1;fill-rule:nonzero;stroke:none"
         id="path52" />
      <path
         d="m 3832.74,3650.6 -222.2,-682.85 c -0.39,-1.16 0,-2.48 1.03,-3.23 0,0 1.64,-1.43 3.41,-2.71 1.76,-1.29 3.63,-2.39 3.63,-2.39 1.03,-0.77 2.4,-0.72 3.39,0 l 580.78,422.35 580.76,-422.35 c 0.98,-0.72 2.37,-0.76 3.4,0 0,0 1.88,1.12 3.64,2.4 1.77,1.28 3.38,2.72 3.38,2.72 1.07,0.74 1.44,2.05 1.05,3.21 l -222.21,682.87 581.16,421.82 c 0.99,0.72 1.44,2 1.07,3.22 0,0 -0.49,2.13 -1.17,4.21 -0.67,2.07 -1.55,4.06 -1.55,4.06 -0.39,1.23 -1.52,2 -2.73,1.99 l -718.12,-0.31 -221.61,683.05 c -0.37,1.17 -1.44,2.01 -2.73,2.01 0,0 -2.17,0.2 -4.36,0.2 -2.16,0 -4.34,-0.2 -4.34,-0.2 -1.28,0 -2.36,-0.84 -2.74,-2.01 l -221.6,-683.05 -718.11,0.31 c -1.21,0.02 -2.34,-0.76 -2.75,-1.98 0,0 -0.85,-2 -1.53,-4.07 -0.67,-2.08 -1.14,-4.2 -1.14,-4.2 -0.4,-1.22 0.05,-2.5 1.05,-3.22 l 581.14,-421.85"
         style="fill:#ed1c24;fill-opacity:1;fill-rule:nonzero;stroke:none"
         id="path54" />
    </g>
  </g>
</svg>
