<?xml version="1.0" encoding="UTF-8"?><svg xmlns="http://www.w3.org/2000/svg" viewBox="0 0 2410.16 691.17"><defs><style>.d{fill:#ed8023;}.e{fill:#93278f;}.f{fill:#e40585;}.g{fill:#c8d43f;}.h{fill:#6d6e71;}.i{fill:#4bb8dc;}.j{font-family:MyriadPro-Regular, Myriad Pro;font-size:26.45px;}</style></defs><g id="a"/><g id="b"><g id="c"><g><g><path class="g" d="M943.95,307.2h0c-65.2,0-118.06-52.87-118.06-118.07s52.85-118.05,118.06-118.05,118.06,52.86,118.06,118.05-52.85,118.07-118.06,118.07m0-307.2c-104.46,0-189.14,84.67-189.14,189.13s84.68,189.16,189.14,189.16,189.14-84.69,189.14-189.16S1048.41,0,943.95,0Z"/><path class="d" d="M1372.45,307.2h0c-65.2,0-118.06-52.87-118.06-118.07s52.85-118.05,118.06-118.05,118.06,52.86,118.06,118.05-52.85,118.07-118.06,118.07m0-307.2c-104.46,0-189.14,84.67-189.14,189.13s84.68,189.16,189.14,189.16,189.14-84.69,189.14-189.16S1476.91,0,1372.45,0Z"/><path class="f" d="M1790.63,307.2h0c-65.2,0-118.06-52.87-118.06-118.07s52.85-118.05,118.06-118.05,118.06,52.86,118.06,118.05-52.85,118.07-118.06,118.07m0-307.2c-104.46,0-189.14,84.67-189.14,189.13s84.68,189.16,189.14,189.16,189.14-84.69,189.14-189.16S1895.09,0,1790.63,0Z"/><path class="i" d="M523.6,307.2h0c-65.2,0-118.06-52.87-118.06-118.07s52.85-118.05,118.06-118.05,118.06,52.86,118.06,118.05-52.85,118.07-118.06,118.07M523.6,0C419.14,0,334.46,84.67,334.46,189.13s84.68,189.16,189.14,189.16,189.14-84.69,189.14-189.16S628.06,0,523.6,0Z"/><path class="e" d="M2221.03,307.2h0c-65.2,0-118.06-52.87-118.06-118.07s52.85-118.05,118.06-118.05,118.06,52.86,118.06,118.05-52.85,118.07-118.06,118.07M2221.03,0C2116.56,0,2031.88,84.67,2031.88,189.13s84.68,189.16,189.14,189.16,189.14-84.69,189.14-189.16S2325.48,0,2221.03,0Z"/></g><g><path class="h" d="M0,463.73H40.76v184.28h106.41v37.19H0v-221.47Z"/><path class="h" d="M324.42,463.73h40.75v221.47h-40.75v-221.47Z"/><path class="h" d="M534.99,463.73h45.28l57.25,169,57.25-169h42.69l-80.22,221.47h-42.05l-80.22-221.47Z"/><path class="h" d="M907.27,463.73h139.73v36.85h-98.97v52.13h72.77v37.19h-72.77v57.77h106.41v37.52h-147.17v-221.47Z"/><path class="h" d="M1252.4,622.77c2.58,3.1,5.66,6.37,9.22,9.79,3.56,3.44,7.54,6.64,11.97,9.63,4.42,2.99,9.38,5.48,14.87,7.47,5.5,1.99,11.7,2.99,18.6,2.99,12.72,0,22.15-2.99,28.3-8.97,6.14-5.98,9.22-13.17,9.22-21.58,0-4.65-.87-8.8-2.59-12.45-1.72-3.65-4.64-6.86-8.73-9.63-4.09-2.76-9.44-5.25-16.01-7.47-6.57-2.21-14.71-4.32-24.42-6.31-9.91-1.99-18.48-5.09-25.71-9.3-7.22-4.2-13.21-9.18-17.95-14.94-4.75-5.75-8.3-12.12-10.67-19.09-2.38-6.97-3.56-14.11-3.56-21.42,0-8.41,1.5-16.44,4.53-24.07,3.02-7.64,7.65-14.39,13.91-20.25,6.25-5.86,14.07-10.57,23.45-14.11,9.38-3.54,20.42-5.31,33.16-5.31,11.43,0,21.24,1.33,29.43,3.98,8.19,2.65,15.04,5.76,20.53,9.3,5.5,3.54,9.76,7.03,12.78,10.46,3.02,3.44,5.18,5.93,6.47,7.47l-26.84,25.9c-1.09-.88-2.81-2.49-5.18-4.82-2.37-2.32-5.33-4.59-8.89-6.8-3.56-2.21-7.82-4.21-12.78-5.98-4.96-1.77-10.57-2.65-16.82-2.65-5.61,0-10.46,.78-14.55,2.32-4.1,1.55-7.5,3.54-10.19,5.98-2.69,2.44-4.69,5.15-5.98,8.14-1.29,2.99-1.95,5.81-1.95,8.47,0,3.98,.7,7.53,2.11,10.63,1.4,3.1,3.77,5.98,7.12,8.63,3.34,2.66,7.93,5.04,13.74,7.14,5.82,2.11,13.15,4.04,21.99,5.81,8.41,1.78,16.5,4.43,24.26,7.97,7.76,3.54,14.6,8.13,20.54,13.78,5.93,5.64,10.67,12.51,14.23,20.59,3.56,8.08,5.33,17.76,5.33,29.05,0,9.74-1.94,18.71-5.82,26.9-3.88,8.19-9.28,15.38-16.17,21.58-6.91,6.2-15.1,11.01-24.58,14.44-9.49,3.43-19.84,5.15-31.05,5.15s-20.54-1.33-29.27-3.98c-8.73-2.65-16.61-6.03-23.62-10.13-7.01-4.09-13.05-8.58-18.11-13.45-5.07-4.87-9.33-9.52-12.78-13.95l28.47-26.89Z"/><path class="h" d="M1573.91,463.73h69.22c15.1,0,27.44,2.38,37.04,7.14,9.59,4.76,17.19,10.62,22.8,17.6,5.61,6.97,9.49,14.44,11.65,22.41,2.15,7.97,3.24,15.27,3.24,21.91,0,12.4-2.16,23.03-6.47,31.88-4.32,8.86-9.92,16.1-16.82,21.75-6.9,5.64-14.66,9.79-23.28,12.45-8.63,2.65-17.14,3.98-25.55,3.98h-32.67v82.34h-39.14v-221.47Zm68.57,103.92c10.35,0,18.6-3.1,24.75-9.3,6.14-6.19,9.22-14.28,9.22-24.24s-3.24-18.87-9.7-25.4c-6.47-6.52-14.56-9.79-24.26-9.79h-29.43v68.73h29.43Z"/><path class="h" d="M1970.6,691.17c-15.74,0-30.4-3.05-43.99-9.13-13.58-6.08-25.45-14.44-35.58-25.07-10.13-10.62-18.11-23.02-23.93-37.19-5.83-14.16-8.73-29.33-8.73-45.49s2.91-31.32,8.73-45.49c5.82-14.16,13.74-26.51,23.77-37.02,10.03-10.51,21.88-18.81,35.58-24.9,13.68-6.08,28.41-9.13,44.15-9.13s30.4,3.05,43.99,9.13c13.58,6.09,25.44,14.39,35.58,24.9,10.13,10.52,18.11,22.86,23.94,37.02,5.82,14.17,8.73,29.33,8.73,45.49s-2.91,31.32-8.73,45.49c-5.83,14.17-13.8,26.56-23.94,37.19-10.13,10.63-21.99,18.99-35.58,25.07-13.59,6.09-28.25,9.13-43.99,9.13Zm0-39.51c10.57,0,20.16-2.1,28.79-6.31,8.62-4.2,15.95-9.9,21.99-17.1,6.04-7.19,10.68-15.55,13.91-25.07,3.23-9.51,4.85-19.47,4.85-29.88s-1.62-20.64-4.85-30.05c-3.24-9.41-7.87-17.65-13.91-24.74-6.04-7.08-13.37-12.67-21.99-16.77-8.63-4.09-18.22-6.15-28.79-6.15s-20.43,2.05-28.95,6.15c-8.52,4.1-15.79,9.68-21.83,16.77-6.04,7.08-10.67,15.33-13.91,24.74-3.24,9.41-4.85,19.42-4.85,30.05s1.61,20.37,4.85,29.88c3.24,9.52,7.87,17.88,13.91,25.07,6.04,7.19,13.31,12.9,21.83,17.1,8.52,4.21,18.17,6.31,28.95,6.31Z"/><path class="h" d="M2278.85,500.58h-73.1v-36.85h186.95v36.85h-73.1v184.61h-40.76v-184.61Z"/></g><text class="j" transform="translate(1234.57 402.61)"><tspan x="0" y="0"> </tspan></text></g></g></g></svg>