<svg version="1.1" id="Layer_1" xmlns="http://www.w3.org/2000/svg" xmlns:xlink="http://www.w3.org/1999/xlink" x="0px" y="0px"
	 width="100%" viewBox="0 0 292 173" enable-background="new 0 0 292 173" xml:space="preserve">
<path fill="#000000" opacity="1.000000" stroke="none" 
	d="
M1.000000,139.000000 
	C1.000000,93.035454 1.000000,47.070904 1.000000,1.053177 
	C98.222847,1.053177 195.445724,1.053177 293.000000,1.053177 
	C293.000000,46.687027 293.000000,92.374855 292.531342,138.531342 
	C195.041794,139.000000 98.020897,139.000000 1.000000,139.000000 
M16.000000,53.500000 
	C16.000000,76.928558 16.000000,100.357117 16.000000,123.714584 
	C103.642555,123.714584 190.710312,123.714584 277.712738,123.714584 
	C277.712738,87.691345 277.712738,51.954239 277.712738,16.285421 
	C190.357422,16.285421 103.289658,16.285421 16.000000,16.285421 
	C16.000000,28.546486 16.000000,40.523243 16.000000,53.500000 
z"/>
<path fill="#ffffff" opacity="1.000000" stroke="none" 
	d="
M1.000000,139.468658 
	C98.020897,139.000000 195.041794,139.000000 292.531342,139.000000 
	C293.000000,150.625351 293.000000,162.250717 293.000000,174.000000 
	C263.645874,174.000000 234.291595,174.000000 204.370972,173.635529 
	C201.495224,167.334595 199.300720,161.348480 196.776123,155.504974 
	C196.291321,154.382797 194.489853,153.151443 193.331497,153.185486 
	C192.129028,153.220795 190.366379,154.483322 189.892899,155.637497 
	C187.412674,161.683426 185.263947,167.865341 183.000000,174.000000 
	C182.555557,174.000000 182.111099,174.000000 181.331787,173.629181 
	C180.584610,172.588577 180.195190,171.903397 179.756546,171.251328 
	C173.623596,162.134430 173.576813,161.154053 178.884933,154.223419 
	C179.023239,154.042831 178.817764,153.598969 178.815842,153.585205 
	C172.767563,150.523849 170.958679,156.607117 166.992142,160.016464 
	C166.992142,156.958755 166.992142,155.187866 166.992142,153.324890 
	C165.184509,153.324890 163.677460,153.324890 162.000000,153.324890 
	C162.000000,160.431885 162.000000,167.215942 162.000000,174.000000 
	C159.299988,174.000000 156.599976,174.000000 153.160675,173.690125 
	C159.032166,168.639557 158.700989,162.094131 156.865707,157.744766 
	C154.982849,153.282608 148.754135,151.848892 140.000000,153.661575 
	C140.000000,160.416351 140.000000,167.208176 140.000000,174.000000 
	C137.629440,174.000000 135.258896,174.000000 132.155334,173.701111 
	C135.185501,170.352982 135.216537,166.331818 135.172394,161.854919 
	C135.114838,156.017624 132.385391,152.386749 126.362091,152.002411 
	C121.767624,151.709244 116.908936,155.880844 117.103844,160.642715 
	C117.286842,165.113525 118.333412,169.548981 119.000000,174.000000 
	C115.638710,174.000000 112.277428,174.000000 108.458168,173.604340 
	C110.286919,166.590439 112.573631,159.972198 114.864166,153.342911 
	C109.425323,152.771713 109.563812,152.814972 107.873680,158.225235 
	C107.270042,160.157532 105.816826,161.824432 104.898399,163.365768 
	C101.323578,159.911957 104.388397,151.288483 95.885895,153.087128 
	C97.594032,160.072113 99.297020,167.036057 101.000000,174.000000 
	C67.775047,174.000000 34.550087,174.000000 1.000000,174.000000 
	C1.000000,162.647842 1.000000,151.292572 1.000000,139.468658 
z"/>
<path fill="#000000" opacity="1.000000" stroke="none" 
	d="
M119.463181,174.000000 
	C118.333412,169.548981 117.286842,165.113525 117.103844,160.642715 
	C116.908936,155.880844 121.767624,151.709244 126.362091,152.002411 
	C132.385391,152.386749 135.114838,156.017624 135.172394,161.854919 
	C135.216537,166.331818 135.185501,170.352982 131.711182,173.701111 
	C127.975456,174.000000 123.950912,174.000000 119.463181,174.000000 
M127.334938,158.002090 
	C126.676582,158.005646 125.591240,157.765411 125.427834,158.051575 
	C124.188171,160.222626 122.403450,162.460709 122.289589,164.752472 
	C122.222801,166.096817 124.905838,167.577759 126.351944,168.997269 
	C127.765869,167.266968 129.977737,165.692123 130.354156,163.759720 
	C130.685852,162.056931 128.966904,159.954712 127.334938,158.002090 
z"/>
<path fill="#000000" opacity="1.000000" stroke="none" 
	d="
M140.463181,174.000000 
	C140.000000,167.208176 140.000000,160.416351 140.000000,153.661575 
	C148.754135,151.848892 154.982849,153.282608 156.865707,157.744766 
	C158.700989,162.094131 159.032166,168.639557 152.710693,173.690125 
	C148.975449,174.000000 144.950912,174.000000 140.463181,174.000000 
M148.786072,168.741577 
	C152.113480,167.420395 152.852478,165.017853 152.046036,161.680222 
	C151.101822,157.772430 148.426926,157.740753 145.000717,158.205078 
	C145.000717,161.052338 144.756027,163.857300 145.137039,166.574509 
	C145.265686,167.491837 146.980240,168.186752 148.786072,168.741577 
z"/>
<path fill="#000000" opacity="1.000000" stroke="none" 
	d="
M162.416656,174.000000 
	C162.000000,167.215942 162.000000,160.431885 162.000000,153.324890 
	C163.677460,153.324890 165.184509,153.324890 166.992142,153.324890 
	C166.992142,155.187866 166.992142,156.958755 166.992142,160.016464 
	C170.958679,156.607117 172.767563,150.523849 178.815842,153.585205 
	C178.817764,153.598969 179.023239,154.042831 178.884933,154.223419 
	C173.576813,161.154053 173.623596,162.134430 179.756546,171.251328 
	C180.195190,171.903397 180.584610,172.588577 180.998459,173.629181 
	C178.629440,174.000000 176.258896,174.000000 173.444168,173.598846 
	C172.240097,170.729614 171.480179,168.261520 170.720276,165.793427 
	C169.994797,165.786621 169.269318,165.779816 168.543839,165.773010 
	C168.029236,168.515350 167.514618,171.257675 167.000000,174.000000 
	C165.611115,174.000000 164.222214,174.000000 162.416656,174.000000 
z"/>
<path fill="#000000" opacity="1.000000" stroke="none" 
	d="
M183.428467,174.000000 
	C185.263947,167.865341 187.412674,161.683426 189.892899,155.637497 
	C190.366379,154.483322 192.129028,153.220795 193.331497,153.185486 
	C194.489853,153.151443 196.291321,154.382797 196.776123,155.504974 
	C199.300720,161.348480 201.495224,167.334595 203.902313,173.635529 
	C201.958328,174.000000 199.916672,174.000000 197.437500,173.583710 
	C197.397278,170.026230 196.051392,168.893158 192.877151,168.927643 
	C189.094742,168.968750 189.056808,171.374863 189.000000,174.000000 
	C187.285645,174.000000 185.571289,174.000000 183.428467,174.000000 
z"/>
<path fill="#000000" opacity="1.000000" stroke="none" 
	d="
M101.437500,174.000000 
	C99.297020,167.036057 97.594032,160.072113 95.885895,153.087128 
	C104.388397,151.288483 101.323578,159.911957 104.898399,163.365768 
	C105.816826,161.824432 107.270042,160.157532 107.873680,158.225235 
	C109.563812,152.814972 109.425323,152.771713 114.864166,153.342911 
	C112.573631,159.972198 110.286919,166.590439 108.000099,173.604340 
	C105.958336,174.000000 103.916664,174.000000 101.437500,174.000000 
z"/>
<path fill="#ffffff" opacity="1.000000" stroke="none" 
	d="
M167.428467,174.000000 
	C167.514618,171.257675 168.029236,168.515350 168.543839,165.773010 
	C169.269318,165.779816 169.994797,165.786621 170.720276,165.793427 
	C171.480179,168.261520 172.240097,170.729614 173.000000,173.598846 
	C171.285645,174.000000 169.571289,174.000000 167.428467,174.000000 
z"/>
<path fill="#ffffff" opacity="1.000000" stroke="none" 
	d="
M189.444168,174.000000 
	C189.056808,171.374863 189.094742,168.968750 192.877151,168.927643 
	C196.051392,168.893158 197.397278,170.026230 197.000000,173.583710 
	C194.629440,174.000000 192.258896,174.000000 189.444168,174.000000 
z"/>
<path fill="#ffffff" opacity="1.000000" stroke="none" 
	d="
M16.000000,53.000000 
	C16.000000,40.523243 16.000000,28.546486 16.000000,16.285421 
	C103.289658,16.285421 190.357422,16.285421 277.712738,16.285421 
	C277.712738,51.954239 277.712738,87.691345 277.712738,123.714584 
	C190.710312,123.714584 103.642555,123.714584 16.000000,123.714584 
	C16.000000,100.357117 16.000000,76.928558 16.000000,53.000000 
M90.262917,103.941803 
	C90.508606,98.538185 90.937210,93.135544 90.966148,87.730766 
	C91.057762,70.616989 91.000000,53.502396 91.000000,36.203011 
	C85.527374,36.203011 80.456863,36.203011 74.829498,36.203011 
	C74.829498,47.888954 74.829498,59.383564 74.829498,71.845734 
	C73.374382,70.513481 72.557625,70.012215 72.076706,69.287941 
	C66.018242,60.163921 60.102203,50.943451 53.919708,41.904991 
	C52.376934,39.649548 50.280895,36.785103 47.970863,36.259785 
	C43.910748,35.336491 39.489372,36.001793 35.272297,36.001793 
	C35.272297,58.954464 35.272297,81.354843 35.272297,103.725143 
	C40.621738,103.725143 45.693840,103.725143 51.337730,103.725143 
	C51.337730,91.655647 51.337730,79.853104 51.337730,66.606621 
	C57.797955,76.266113 63.972496,84.325012 68.837715,93.109100 
	C73.531090,101.582924 79.312798,106.293983 90.262917,103.941803 
M125.499954,36.000000 
	C116.737160,36.000000 107.974358,36.000000 99.280380,36.000000 
	C99.280380,58.971161 99.280380,81.370613 99.280380,103.722389 
	C115.630768,103.722389 131.699280,103.722389 147.719971,103.722389 
	C147.719971,98.700371 147.719971,93.961525 147.719971,88.838837 
	C137.035049,88.838837 126.624573,88.838837 116.281433,88.838837 
	C116.281433,84.697662 116.281433,80.957680 116.281433,76.834198 
	C125.300613,76.834198 134.044525,76.834198 142.715637,76.834198 
	C142.715637,71.691574 142.715637,66.952721 142.715637,61.830276 
	C133.691299,61.830276 124.946083,61.830276 116.285774,61.830276 
	C116.285774,58.021290 116.285774,54.614582 116.285774,50.827835 
	C126.975090,50.827835 137.383881,50.827835 147.712418,50.827835 
	C147.712418,45.685028 147.712418,40.946220 147.712418,36.000000 
	C140.450821,36.000000 133.475357,36.000000 125.499954,36.000000 
M170.503311,36.000000 
	C165.404999,36.000000 160.306671,36.000000 155.279892,36.000000 
	C155.279892,58.971420 155.279892,81.370705 155.279892,103.718094 
	C160.969513,103.718094 166.373947,103.718094 172.167618,103.718094 
	C172.167618,95.032547 172.167618,86.622200 172.167618,77.831543 
	C181.302750,77.831543 190.046234,77.831543 198.715012,77.831543 
	C198.715012,72.691536 198.715012,67.953377 198.715012,62.828598 
	C189.691010,62.828598 180.945618,62.828598 172.286865,62.828598 
	C172.286865,58.686115 172.286865,54.945766 172.286865,50.824581 
	C182.977432,50.824581 193.386292,50.824581 203.711334,50.824581 
	C203.711334,45.684357 203.711334,40.946205 203.711334,36.000000 
	C192.783234,36.000000 182.142532,36.000000 170.503311,36.000000 
M258.999756,48.329433 
	C258.999756,44.247120 258.999756,40.164803 258.999756,36.347012 
	C241.564056,36.347012 224.825836,36.347012 208.350586,36.347012 
	C208.350586,41.441956 208.350586,46.182289 208.350586,51.306591 
	C214.446106,51.306591 220.194427,51.306591 226.308670,51.306591 
	C226.308670,69.111595 226.308670,86.517952 226.308670,103.644104 
	C231.786636,103.644104 236.864212,103.644104 242.313751,103.644104 
	C242.313751,85.883369 242.313751,68.477371 242.313751,50.999760 
	C247.205643,50.999760 251.704956,51.096260 256.193817,50.922333 
	C257.147491,50.885380 258.062958,49.862598 258.999756,48.329433 
z"/>
<path fill="#ffffff" opacity="1.000000" stroke="none" 
	d="
M127.744217,158.015472 
	C128.966904,159.954712 130.685852,162.056931 130.354156,163.759720 
	C129.977737,165.692123 127.765869,167.266968 126.351944,168.997269 
	C124.905838,167.577759 122.222801,166.096817 122.289589,164.752472 
	C122.403450,162.460709 124.188171,160.222626 125.427834,158.051575 
	C125.591240,157.765411 126.676582,158.005646 127.744217,158.015472 
z"/>
<path fill="#ffffff" opacity="1.000000" stroke="none" 
	d="
M148.378036,168.862442 
	C146.980240,168.186752 145.265686,167.491837 145.137039,166.574509 
	C144.756027,163.857300 145.000717,161.052338 145.000717,158.205078 
	C148.426926,157.740753 151.101822,157.772430 152.046036,161.680222 
	C152.852478,165.017853 152.113480,167.420395 148.378036,168.862442 
z"/>
<path fill="#000000" opacity="1.000000" stroke="none" 
	d="
M89.781876,103.968842 
	C79.312798,106.293983 73.531090,101.582924 68.837715,93.109100 
	C63.972496,84.325012 57.797955,76.266113 51.337730,66.606621 
	C51.337730,79.853104 51.337730,91.655647 51.337730,103.725143 
	C45.693840,103.725143 40.621738,103.725143 35.272297,103.725143 
	C35.272297,81.354843 35.272297,58.954464 35.272297,36.001793 
	C39.489372,36.001793 43.910748,35.336491 47.970863,36.259785 
	C50.280895,36.785103 52.376934,39.649548 53.919708,41.904991 
	C60.102203,50.943451 66.018242,60.163921 72.076706,69.287941 
	C72.557625,70.012215 73.374382,70.513481 74.829498,71.845734 
	C74.829498,59.383564 74.829498,47.888954 74.829498,36.203011 
	C80.456863,36.203011 85.527374,36.203011 91.000000,36.203011 
	C91.000000,53.502396 91.057762,70.616989 90.966148,87.730766 
	C90.937210,93.135544 90.508606,98.538185 89.781876,103.968842 
z"/>
<path fill="#000000" opacity="1.000000" stroke="none" 
	d="
M125.999916,36.000000 
	C133.475357,36.000000 140.450821,36.000000 147.712418,36.000000 
	C147.712418,40.946220 147.712418,45.685028 147.712418,50.827835 
	C137.383881,50.827835 126.975090,50.827835 116.285774,50.827835 
	C116.285774,54.614582 116.285774,58.021290 116.285774,61.830276 
	C124.946083,61.830276 133.691299,61.830276 142.715637,61.830276 
	C142.715637,66.952721 142.715637,71.691574 142.715637,76.834198 
	C134.044525,76.834198 125.300613,76.834198 116.281433,76.834198 
	C116.281433,80.957680 116.281433,84.697662 116.281433,88.838837 
	C126.624573,88.838837 137.035049,88.838837 147.719971,88.838837 
	C147.719971,93.961525 147.719971,98.700371 147.719971,103.722389 
	C131.699280,103.722389 115.630768,103.722389 99.280380,103.722389 
	C99.280380,81.370613 99.280380,58.971161 99.280380,36.000000 
	C107.974358,36.000000 116.737160,36.000000 125.999916,36.000000 
z"/>
<path fill="#000000" opacity="1.000000" stroke="none" 
	d="
M171.002563,36.000000 
	C182.142532,36.000000 192.783234,36.000000 203.711334,36.000000 
	C203.711334,40.946205 203.711334,45.684357 203.711334,50.824581 
	C193.386292,50.824581 182.977432,50.824581 172.286865,50.824581 
	C172.286865,54.945766 172.286865,58.686115 172.286865,62.828598 
	C180.945618,62.828598 189.691010,62.828598 198.715012,62.828598 
	C198.715012,67.953377 198.715012,72.691536 198.715012,77.831543 
	C190.046234,77.831543 181.302750,77.831543 172.167618,77.831543 
	C172.167618,86.622200 172.167618,95.032547 172.167618,103.718094 
	C166.373947,103.718094 160.969513,103.718094 155.279892,103.718094 
	C155.279892,81.370705 155.279892,58.971420 155.279892,36.000000 
	C160.306671,36.000000 165.404999,36.000000 171.002563,36.000000 
z"/>
<path fill="#000000" opacity="1.000000" stroke="none" 
	d="
M258.997864,48.811722 
	C258.062958,49.862598 257.147491,50.885380 256.193817,50.922333 
	C251.704956,51.096260 247.205643,50.999760 242.313751,50.999760 
	C242.313751,68.477371 242.313751,85.883369 242.313751,103.644104 
	C236.864212,103.644104 231.786636,103.644104 226.308670,103.644104 
	C226.308670,86.517952 226.308670,69.111595 226.308670,51.306591 
	C220.194427,51.306591 214.446106,51.306591 208.350586,51.306591 
	C208.350586,46.182289 208.350586,41.441956 208.350586,36.347012 
	C224.825836,36.347012 241.564056,36.347012 258.999756,36.347012 
	C258.999756,40.164803 258.999756,44.247120 258.997864,48.811722 
z"/>
</svg>