<svg version="1.1" id="Layer_1" xmlns="http://www.w3.org/2000/svg" xmlns:xlink="http://www.w3.org/1999/xlink" x="0px" y="0px"
	 width="100%" viewBox="0 0 1024 1024" enable-background="new 0 0 1024 1024" xml:space="preserve">
<path fill="#000000" opacity="1.000000" stroke="none" 
	d="
M1025.000000,633.535339 
	C1022.249084,633.008911 1019.390564,633.403992 1016.574280,633.395081 
	C1004.078430,633.355469 991.582336,633.348755 979.086426,633.374695 
	C976.402161,633.380249 974.049927,633.288574 973.955200,629.633789 
	C973.868103,626.274475 974.958496,624.138672 978.600708,623.931458 
	C982.441528,623.713013 986.186646,623.042114 989.857727,621.832703 
	C993.175476,620.739807 994.505920,618.674927 993.314941,615.354675 
	C989.437195,604.544312 985.457214,593.770508 981.579773,582.960022 
	C980.743225,580.627563 979.048828,580.160034 976.877625,580.163208 
	C961.549316,580.185303 946.220703,580.215637 930.892822,580.132507 
	C928.126587,580.117493 926.610046,581.238831 925.692627,583.768188 
	C922.345886,592.995422 918.884644,602.174133 916.693542,611.780701 
	C915.607544,616.542053 917.317810,619.502625 921.749023,621.178772 
	C925.831909,622.723145 930.041870,623.698486 934.396118,623.878906 
	C937.998291,624.028198 938.620483,626.005798 938.541992,629.189941 
	C938.459473,632.538086 937.002136,633.419128 933.933167,633.407715 
	C912.773560,633.328979 891.613403,633.311829 870.454041,633.410950 
	C867.453308,633.424988 866.025574,631.898682 864.604858,629.645935 
	C851.000183,608.073486 836.436523,587.170532 820.675964,567.110229 
	C818.192688,563.949524 808.262451,561.865662 804.705444,563.709656 
	C803.224060,564.477661 803.183960,565.802979 803.184692,567.119385 
	C803.192749,582.779663 803.183105,598.440186 803.290161,614.099976 
	C803.321838,618.725037 806.009949,621.550293 810.363037,622.584778 
	C813.262695,623.273865 816.266785,623.648132 819.245300,623.849182 
	C822.881714,624.094543 824.540344,625.503540 824.439514,629.445374 
	C824.334229,633.560547 821.844849,633.375122 819.073181,633.372375 
	C800.412537,633.354004 781.751892,633.341675 763.091248,633.369507 
	C760.213013,633.373779 757.840088,633.274658 757.719116,629.327209 
	C757.607483,625.686096 759.143250,624.021240 762.569153,623.888062 
	C775.973206,623.367004 778.927795,620.866943 778.793640,604.958313 
	C778.506958,570.971680 778.721375,536.980957 778.714478,502.991913 
	C778.712219,492.094269 777.059692,490.121735 766.301453,488.030548 
	C764.506470,487.681610 762.690430,487.441528 760.891541,487.111206 
	C757.402100,486.470428 757.800659,483.762482 757.796326,481.257446 
	C757.791870,478.651917 759.302795,477.753784 761.646179,477.793060 
	C788.450378,478.242584 815.305847,476.309143 842.050903,478.796936 
	C854.062073,479.914246 865.168701,484.178467 872.794922,494.396820 
	C886.363831,512.577759 879.412598,539.354553 858.183228,550.642395 
	C853.522644,553.120422 848.559570,555.029480 843.962769,557.098389 
	C843.223633,558.735413 844.138245,559.635864 844.806946,560.536072 
	C857.421936,577.515808 870.034546,594.497620 882.721191,611.423767 
	C884.104553,613.269348 885.811890,614.929626 887.589478,616.411438 
	C893.154114,621.050171 895.258057,620.731445 899.845459,614.903687 
	C902.252197,611.846191 903.735657,608.305176 905.131775,604.742676 
	C918.130066,571.574768 931.089844,538.391724 944.058289,505.212128 
	C947.391968,496.683105 950.822571,488.189636 953.992371,479.600037 
	C955.200623,476.325867 957.287231,475.583282 960.494934,475.600494 
	C963.733948,475.617920 965.750854,476.544830 966.975769,479.731079 
	C983.043640,521.528442 999.213440,563.286682 1015.296082,605.078369 
	C1017.405090,610.558899 1019.370911,616.046082 1024.729004,619.805420 
	C1025.000000,624.356873 1025.000000,628.713806 1025.000000,633.535339 
M841.208130,494.241028 
	C835.848938,490.204010 829.813843,488.223297 823.105164,488.249268 
	C818.782227,488.265991 814.459229,488.236450 810.136230,488.233063 
	C803.171448,488.227631 803.154358,488.229462 803.147888,494.991516 
	C803.134216,509.290649 803.128662,523.589783 803.141357,537.888916 
	C803.155334,553.651489 803.167603,553.682007 818.943359,552.761658 
	C833.049255,551.938721 843.718018,545.347168 848.487305,532.022644 
	C853.242615,518.737000 853.088562,505.493805 841.208130,494.241028 
M937.474854,552.893738 
	C936.036865,557.933167 933.279297,562.565247 932.323242,568.459961 
	C946.775391,568.459961 960.718750,568.459961 975.603943,568.459961 
	C968.323120,549.665833 961.254272,531.418945 954.185425,513.172058 
	C953.792908,513.226379 953.400452,513.280701 953.007935,513.335083 
	C947.938477,526.286682 942.869019,539.238281 937.474854,552.893738 
z"/>
<path fill="#000000" opacity="1.000000" stroke="none" 
	d="
M1.000001,579.468628 
	C2.321656,579.053833 3.658531,579.261414 4.962051,579.132202 
	C8.588801,578.773071 10.324530,580.407471 11.347383,583.871582 
	C14.288173,593.831543 18.444260,603.172119 25.240599,611.279968 
	C35.766716,623.837280 52.337101,629.003479 68.096405,624.204346 
	C80.030876,620.569946 86.670799,608.787903 84.398476,595.271545 
	C82.409126,583.438416 75.774765,575.381836 64.722878,570.782349 
	C52.124958,565.539429 38.996315,561.602722 26.866173,555.204041 
	C3.671707,542.968933 0.220015,518.645691 7.814641,500.954315 
	C14.657676,485.013763 28.177870,477.286469 44.813740,474.738678 
	C57.831398,472.745026 69.951340,475.985291 81.240532,482.367218 
	C84.659622,484.300049 86.851532,484.488342 88.678490,480.559265 
	C90.534744,476.567108 94.328705,477.568024 97.491051,477.962067 
	C101.128639,478.415314 100.153473,481.656281 100.209213,483.973633 
	C100.533615,497.459137 100.798958,510.946594 100.970383,524.434814 
	C101.002335,526.948120 101.633316,530.154480 97.456161,530.269836 
	C94.130875,530.361694 91.017479,530.852783 89.789131,526.143921 
	C87.561882,517.605652 84.533165,509.299866 79.789314,501.738922 
	C71.899109,489.163239 60.457050,483.618347 45.869591,485.519409 
	C36.821419,486.698639 29.786598,491.780090 27.208782,500.775116 
	C24.369488,510.682495 26.372440,519.962463 34.079853,527.397095 
	C41.257198,534.320374 50.649044,537.147766 59.596184,540.686707 
	C67.497917,543.812195 75.279640,547.152649 82.976303,550.765320 
	C117.381790,566.914612 112.469696,611.172668 87.265419,627.006226 
	C67.119858,639.661865 46.336124,638.778442 25.098253,630.443909 
	C22.313509,629.351013 19.611134,628.048462 16.866495,626.852539 
	C16.724073,626.790527 16.542849,626.817566 15.654926,626.739075 
	C13.360104,633.033630 8.253927,634.520691 1.450245,633.086121 
	C1.000000,615.312439 1.000000,597.624878 1.000001,579.468628 
z"/>
<path fill="#000000" opacity="1.000000" stroke="none" 
	d="
M603.866638,493.065491 
	C621.899597,506.031250 630.925171,523.587830 633.461609,545.074341 
	C635.493347,562.286011 633.541748,578.684998 625.102844,593.928833 
	C613.180664,615.464478 593.791443,626.340820 570.450012,631.319336 
	C561.930176,633.136475 553.307617,633.457397 544.622925,633.402283 
	C526.459717,633.286987 508.295258,633.373108 490.131317,633.355164 
	C487.483948,633.352600 484.791931,633.765991 484.577271,629.586731 
	C484.371735,625.584778 486.194061,624.105225 489.730103,623.998962 
	C504.082855,623.567993 505.931274,619.518921 505.807678,605.522217 
	C505.506073,571.363281 505.721832,537.199951 505.694916,503.038361 
	C505.686218,491.998688 497.902985,485.751312 486.940735,487.929047 
	C484.822510,488.349823 482.747345,488.983063 480.643188,489.479614 
	C474.085449,491.027191 471.111115,495.423950 470.153046,501.869080 
	C468.994476,509.663055 469.068878,517.484802 469.053223,525.304810 
	C468.985840,558.966309 469.058563,592.628235 468.917480,626.289307 
	C468.904877,629.287231 470.758606,633.636169 466.301697,634.915955 
	C461.979614,636.156982 458.227905,635.084229 455.105560,630.830811 
	C429.078522,595.375122 402.816620,560.091858 376.618469,524.761841 
	C373.379181,520.393372 370.098236,516.055847 366.528564,511.293030 
	C365.463318,514.341614 365.411285,516.784546 365.411438,519.231934 
	C365.412689,543.728210 365.431519,568.224487 365.409851,592.720764 
	C365.405121,598.081421 366.222961,603.323242 367.328857,608.542908 
	C368.778931,615.387268 372.738739,619.826660 379.614044,621.521118 
	C382.523590,622.238220 385.397888,623.254211 388.350891,623.601990 
	C392.488098,624.089233 393.537994,626.306519 393.254272,630.087585 
	C392.957184,634.046631 390.141266,633.339661 387.779022,633.340698 
	C327.454681,633.367859 267.130341,633.362488 206.806000,633.353271 
	C204.157669,633.352844 201.417603,633.841003 201.436234,629.531006 
	C201.452515,625.757874 202.761749,623.901733 206.553726,623.863403 
	C208.051804,623.848206 209.556137,623.779968 211.044815,623.618164 
	C218.539459,622.803528 221.818832,619.545532 221.906799,611.970703 
	C222.096466,595.641968 221.961838,579.309814 222.077621,562.979858 
	C222.103592,559.317139 220.597504,558.016602 216.992966,558.033447 
	C196.329926,558.130188 175.666046,558.122192 155.002869,558.042969 
	C151.619446,558.030029 150.271408,559.205627 150.299515,562.711792 
	C150.429047,578.875061 150.312363,595.040161 150.398605,611.203979 
	C150.430145,617.113220 152.980301,620.462463 158.681595,622.236389 
	C161.207565,623.022339 163.864182,623.530273 166.498489,623.792175 
	C170.213333,624.161560 171.132385,626.230408 170.964523,629.584656 
	C170.786896,633.133850 168.604752,633.397827 165.848511,633.390869 
	C147.518021,633.344727 129.187347,633.344727 110.856819,633.375122 
	C107.952843,633.379944 105.647476,633.237183 105.598442,629.268188 
	C105.554070,625.676880 106.899719,624.237061 110.404800,623.831055 
	C125.509895,622.081177 125.858948,621.619385 125.860855,606.234802 
	C125.864937,573.239746 125.856750,540.244629 125.853180,507.249542 
	C125.851570,492.407928 124.585266,490.612946 110.017426,487.547974 
	C106.296974,486.765228 105.501305,485.048767 105.619148,481.761963 
	C105.715118,479.085205 106.664970,477.763763 109.452393,477.768036 
	C128.615952,477.797485 147.779633,477.801300 166.943130,477.754791 
	C169.748581,477.747986 170.837540,479.194000 170.931732,481.727692 
	C171.031097,484.400726 170.699142,486.735901 167.292053,487.201691 
	C164.330307,487.606567 161.358215,488.100830 158.473190,488.866425 
	C153.042221,490.307648 150.486969,493.275726 150.430023,498.853455 
	C150.280334,513.516296 150.423843,528.181946 150.340805,542.845886 
	C150.323471,545.910095 151.655716,546.951355 154.553116,546.945679 
	C175.549789,546.904724 196.546692,546.904358 217.543304,546.964050 
	C220.710922,546.973083 222.059616,545.683350 222.039398,542.501953 
	C221.950409,528.505310 221.963348,514.507935 221.925308,500.510864 
	C221.910934,495.218933 219.427246,491.637939 214.375748,489.974823 
	C211.536682,489.040070 208.697021,487.849121 205.771011,487.500458 
	C201.923035,487.041931 201.344971,485.034729 201.470306,481.702423 
	C201.604355,478.138306 203.592209,477.748352 206.401321,477.749847 
	C259.893311,477.778168 313.385345,477.806885 366.877136,477.699860 
	C370.699097,477.692200 372.527374,479.799713 374.450531,482.409912 
	C398.761505,515.404907 423.096954,548.381775 447.435059,581.356750 
	C450.189941,585.089294 452.999115,588.781799 455.845184,592.575623 
	C457.335083,591.278503 456.757782,589.857666 456.759857,588.644104 
	C456.798523,566.147583 456.760376,543.650879 456.796906,521.154358 
	C456.806122,515.481323 456.503052,509.852081 455.627502,504.238525 
	C454.506165,497.048950 451.325775,491.718201 443.713257,489.958588 
	C440.475098,489.210083 437.328003,487.896362 434.059021,487.494873 
	C429.860321,486.979156 429.520782,484.470642 429.690704,481.149048 
	C429.889526,477.261963 432.707001,477.786285 435.122772,477.784576 
	C475.450043,477.755768 515.780090,477.483704 556.103210,477.889130 
	C573.230957,478.061340 589.201538,483.260956 603.866638,493.065491 
M569.391663,492.094635 
	C558.655701,487.209686 547.231506,488.462402 535.946777,488.189117 
	C531.643921,488.084869 530.160461,489.355927 530.209290,493.831848 
	C530.420471,513.156006 530.268372,532.484070 530.268555,551.810669 
	C530.268738,570.304199 530.226990,588.798157 530.336853,607.291077 
	C530.389648,616.178040 533.572205,619.975647 542.154846,622.108582 
	C547.079041,623.332336 552.096619,623.065491 557.073364,622.871704 
	C577.120056,622.091370 591.746216,612.812927 599.584351,594.216064 
	C607.533569,575.355591 607.898865,555.599792 603.930542,535.841248 
	C599.927612,515.910522 589.360962,500.644562 569.391663,492.094635 
M246.310654,573.500000 
	C246.317276,585.821228 246.283630,598.142639 246.345978,610.463623 
	C246.381866,617.557190 249.003265,620.721680 255.743866,622.662109 
	C262.289520,624.546509 268.903381,624.136963 275.540527,623.664734 
	C285.150757,622.981140 288.555084,619.354431 288.561340,609.736023 
	C288.574280,589.755676 288.620880,569.775024 288.541412,549.794983 
	C288.474609,532.993347 288.237885,516.192444 288.101410,499.391022 
	C288.068054,495.283661 286.338501,492.353912 282.417847,490.902161 
	C274.528381,487.980804 266.597534,486.077087 258.033600,488.002533 
	C248.327789,490.184692 246.338547,492.219574 246.324890,502.069214 
	C246.292358,525.546143 246.312363,549.023071 246.310654,573.500000 
M313.038239,605.448059 
	C313.081818,607.944763 313.123657,610.441589 313.169434,612.938232 
	C313.237579,616.656799 315.102997,619.359375 318.329987,620.873291 
	C327.609894,625.226929 336.921692,624.288513 345.752289,619.807922 
	C352.943481,616.159241 352.636230,608.618835 353.548767,601.928589 
	C353.817047,599.961975 353.694885,597.937683 353.696686,595.939819 
	C353.720551,569.129333 353.750000,542.318848 353.745514,515.508362 
	C353.742737,499.112030 347.892761,491.741791 331.987793,487.971130 
	C320.686890,485.291962 313.061218,491.134521 313.054077,502.549988 
	C313.032837,536.521179 313.041870,570.492371 313.038239,605.448059 
z"/>
<path fill="#000000" opacity="1.000000" stroke="none" 
	d="
M710.417358,521.681335 
	C724.748474,558.773315 738.935974,595.505371 753.403259,632.961853 
	C709.470764,632.961853 666.617188,632.961853 623.898987,632.961853 
	C622.935669,630.859131 623.969421,629.407471 624.550720,627.891357 
	C643.086182,579.548340 661.595154,531.195068 680.242798,482.895386 
	C681.375488,479.961517 681.341614,475.782776 686.428467,475.604279 
	C690.632019,475.456726 693.080383,476.480804 694.651001,480.782532 
	C699.617126,494.383636 705.032288,507.820801 710.417358,521.681335 
M716.753296,603.628845 
	C704.989075,573.429749 693.224915,543.230652 681.460693,513.031494 
	C681.038513,513.103760 680.616272,513.176025 680.194092,513.248291 
	C666.017700,550.121094 651.841370,586.993896 637.589050,624.064148 
	C666.770813,624.064148 695.380188,624.064148 724.356934,624.064148 
	C722.392212,616.838684 719.616455,610.625366 716.753296,603.628845 
z"/>
</svg>