<svg version="1.1" id="Layer_1" xmlns="http://www.w3.org/2000/svg" xmlns:xlink="http://www.w3.org/1999/xlink" x="0px" y="0px"
	 width="100%" viewBox="0 0 816 1024" enable-background="new 0 0 816 1024" xml:space="preserve">
<path fill="#ffffff" opacity="1.000000" stroke="none" 
	d="
M304.596893,836.425903 
	C290.865265,834.488281 279.517944,827.532471 267.513123,822.258484 
	C264.022186,820.724792 260.392731,819.181702 256.672607,818.547729 
	C234.301773,814.735535 214.126801,804.192749 192.579987,797.828003 
	C179.467407,793.954590 170.796616,783.400391 162.381088,773.277771 
	C154.019394,763.219788 149.277527,751.216370 143.965881,739.291321 
	C136.339905,722.170471 133.340591,703.979675 127.770378,686.437561 
	C123.904175,674.261902 122.748230,661.407715 116.890266,649.689514 
	C107.477715,630.860596 96.828415,613.278687 79.096146,601.012695 
	C74.970406,598.158752 73.034515,593.967896 73.092957,588.989563 
	C73.160286,583.253967 73.987976,577.515137 77.177864,572.695068 
	C84.771431,561.220947 88.322647,548.201904 92.139435,535.271301 
	C93.542526,530.517822 95.688629,526.393982 99.423340,523.013367 
	C107.971275,515.275940 112.696236,504.805573 118.763092,495.308411 
	C120.742226,492.210327 122.513527,488.916779 125.211800,486.456390 
	C133.234299,479.141144 136.021408,469.600098 135.815109,459.408966 
	C135.566788,447.142975 137.899033,435.248901 139.181839,423.193390 
	C140.020172,415.314880 144.791656,409.290863 148.531952,403.025421 
	C155.306046,391.677979 160.986404,379.338989 171.767685,370.846375 
	C175.281601,368.078400 178.819046,365.233276 182.703140,363.063019 
	C193.022781,357.296875 198.188568,347.343842 204.077408,337.889740 
	C209.296906,329.510193 213.104477,320.601746 216.309982,311.238037 
	C220.050232,300.312256 228.777618,292.626465 237.753738,286.201416 
	C249.627289,277.702393 261.346405,268.747772 274.766846,262.593414 
	C276.878601,261.625031 278.996582,260.450134 281.236633,260.017426 
	C294.996857,257.359314 306.538116,250.098938 318.011444,242.649796 
	C319.858612,241.450500 321.208862,239.805389 322.647858,238.169647 
	C332.232422,227.274780 342.438965,217.355438 358.007446,215.833817 
	C362.500977,215.394623 366.481201,212.987350 370.883423,211.926971 
	C379.842041,209.769058 388.038391,213.061462 396.445984,214.716019 
	C407.918945,216.973846 419.546326,217.755432 431.136475,218.909363 
	C436.185303,219.412048 441.111511,218.400085 445.879639,216.785294 
	C456.432892,213.211273 466.906830,213.023712 477.798920,215.799759 
	C490.736237,219.097031 503.641937,222.138184 515.303467,229.031021 
	C519.809021,231.694138 525.257385,231.582352 530.187439,233.085373 
	C541.059570,236.399933 550.273071,242.147125 558.271545,250.332306 
	C568.287109,260.581635 579.935669,268.879425 591.621216,277.191284 
	C603.815552,285.865112 612.854309,297.774292 621.043579,310.237793 
	C625.617981,317.199829 630.206726,324.152527 634.771179,331.121124 
	C642.389648,342.752319 647.733459,355.391113 652.606079,368.408173 
	C657.650879,381.885040 662.391296,395.816071 672.896912,406.449371 
	C679.740601,413.376160 680.696777,422.794189 683.774841,431.282532 
	C686.324097,438.312469 688.346619,445.559357 690.189453,452.815033 
	C698.493103,485.508453 702.437683,518.901123 705.716431,552.381287 
	C706.067993,555.970886 705.442383,559.692078 704.993835,563.318054 
	C703.089783,578.708923 705.365845,593.784485 707.456421,609.000549 
	C708.871155,619.297180 708.540894,629.803101 706.076538,640.256470 
	C701.163452,661.096680 693.518555,680.922852 684.917664,700.399170 
	C681.041565,709.176392 673.932129,715.734741 667.289673,722.544189 
	C659.508789,730.520569 651.909241,738.685547 644.485474,746.995972 
	C631.835083,761.157410 619.078430,775.019348 601.981567,784.234802 
	C591.738464,789.756042 582.493042,796.966797 573.296997,804.160278 
	C569.393616,807.213562 564.945740,809.630737 560.562988,811.999817 
	C548.506104,818.517578 538.083862,827.448181 526.568054,834.760498 
	C516.565430,841.111877 505.508087,843.795410 493.868500,844.106323 
	C477.344055,844.547607 460.932739,842.749268 444.567596,840.722168 
	C434.109619,839.426819 423.683685,841.125183 413.169037,840.220764 
	C387.274719,837.993408 361.261414,839.798096 335.306671,839.100403 
	C325.158081,838.827637 314.993439,838.721008 304.596893,836.425903 
M477.766937,451.654755 
	C479.996155,453.116241 482.328705,454.442780 484.439240,456.059235 
	C522.834595,485.466675 540.132568,524.052551 531.793579,572.003784 
	C524.741333,612.555664 501.047394,641.724121 464.484222,660.491028 
	C453.694641,666.029053 451.948181,665.034363 451.947968,653.023621 
	C451.947052,606.863953 451.947571,560.704224 451.953217,514.544556 
	C451.955170,498.547241 451.791504,482.546570 452.083679,466.554382 
	C452.185333,460.990997 450.059235,457.759369 444.963898,456.035767 
	C441.022186,454.702362 437.171906,453.099640 433.235596,451.748962 
	C425.672180,449.153625 423.422272,450.673218 423.417053,458.653748 
	C423.369141,531.975891 423.359772,605.298035 423.372009,678.620178 
	C423.373260,686.065186 424.823090,687.305969 432.309357,686.811523 
	C433.305237,686.745789 434.306854,686.657593 435.286987,686.477478 
	C467.228851,680.608765 496.275909,668.329285 520.560913,646.412476 
	C551.559265,618.437073 569.760559,584.726318 565.919189,541.493225 
	C564.079285,520.785645 557.524658,501.829681 546.016174,484.592682 
	C534.071350,466.702209 518.292358,452.715332 500.411713,441.066345 
	C496.061890,438.232544 495.261597,435.679962 498.114014,431.449585 
	C501.874756,425.872040 504.083008,419.574005 505.898499,413.131439 
	C513.018311,387.865692 500.174042,364.403717 474.986755,357.329071 
	C461.055359,353.416016 446.976807,354.207977 432.959991,357.372772 
	C426.205078,358.897919 424.093658,361.377319 423.993561,368.429352 
	C423.764374,384.577179 422.941956,400.711426 423.849121,416.878510 
	C424.415710,426.976562 424.819641,427.863342 434.365875,432.007599 
	C448.711365,438.235413 463.535522,443.411133 477.766937,451.654755 
M412.531769,369.102417 
	C411.590393,361.471130 409.980804,358.861572 405.125702,358.357361 
	C394.033936,357.205566 382.950958,355.574707 371.754517,356.205627 
	C358.238159,356.967224 346.012512,360.859528 338.082489,372.726807 
	C325.771301,391.150452 326.341614,410.162170 337.497559,428.717804 
	C347.236633,444.916748 361.025208,457.592590 375.860748,469.067383 
	C382.174316,473.950745 385.128021,480.049194 385.116272,487.972351 
	C385.033997,543.469421 385.045685,598.966736 385.013397,654.463928 
	C385.011261,658.094788 384.841949,661.717590 383.675354,665.012695 
	C381.982178,665.744873 380.805725,665.040710 379.598053,664.484497 
	C358.822937,654.914307 341.089905,641.618774 327.076965,623.276794 
	C296.287933,582.976074 294.862579,525.290833 324.009521,484.048645 
	C329.706146,475.988068 336.180267,468.600525 343.564453,462.059753 
	C346.531128,459.431915 346.842468,457.204681 344.151917,454.118683 
	C334.651642,443.222046 333.324921,441.476776 322.642975,451.785675 
	C322.523407,451.901031 322.385101,451.996735 322.257935,452.104401 
	C308.222290,463.988708 294.990417,476.525635 285.887909,492.880096 
	C273.440796,515.243774 267.865387,539.002197 270.911926,564.488281 
	C274.910095,597.935303 291.685883,624.539246 316.338379,646.519775 
	C341.466431,668.924255 371.608551,680.716675 404.333649,686.588074 
	C410.543884,687.702332 412.787354,685.428467 412.786346,678.299927 
	C412.776581,609.136719 412.706299,539.973511 412.698761,470.810303 
	C412.697937,463.200500 410.122223,457.028137 404.327728,451.862366 
	C392.763550,441.552856 381.475891,430.932312 370.115356,420.395660 
	C364.487488,415.175903 359.052399,409.771423 355.142944,403.057129 
	C345.977325,387.315735 354.707458,369.440918 372.720917,367.073944 
	C381.209808,365.958496 384.885834,369.120026 384.972107,377.736084 
	C385.057159,386.234741 385.066132,394.734283 385.076202,403.233490 
	C385.079651,406.152161 385.548767,408.820526 387.816345,410.975922 
	C394.095337,416.944458 400.243774,423.051636 406.575745,428.962646 
	C409.583557,431.770416 411.460022,431.048218 412.340851,426.969360 
	C412.619019,425.681274 412.655579,424.322052 412.654633,422.995483 
	C412.642181,405.329987 412.603363,387.664520 412.531769,369.102417 
z"/>
<path fill="#ffffff" opacity="1.000000" stroke="none" 
	d="
M463.799194,367.778564 
	C482.451477,370.658600 490.487946,387.686249 480.972107,403.397461 
	C476.866241,410.176514 471.243164,415.649597 465.080048,420.515015 
	C460.788910,423.902588 454.898956,421.885101 452.912994,416.611542 
	C452.018921,414.237427 451.924469,411.729431 451.928741,409.222687 
	C451.945648,399.230988 451.960022,389.239288 451.988129,379.247620 
	C452.014923,369.724457 453.909119,367.819275 463.799194,367.778564 
z"/>
</svg>