<?xml version="1.0" standalone="no"?>
<!DOCTYPE svg PUBLIC "-//W3C//DTD SVG 20010904//EN"
 "http://www.w3.org/TR/2001/REC-SVG-20010904/DTD/svg10.dtd">
<svg version="1.0" xmlns="http://www.w3.org/2000/svg"
 width="874.000000pt" height="1080.000000pt" viewBox="0 0 874.000000 1080.000000"
 preserveAspectRatio="xMidYMid meet">
<metadata>
Created by potrace 1.16, written by Peter Selinger 2001-2019
</metadata>
<g transform="translate(0.000000,1080.000000) scale(0.100000,-0.100000)"
fill="#ffffff" stroke="white">
<path d="M0 5400 l0 -5400 4370 0 4370 0 0 5400 0 5400 -4370 0 -4370 0 0
-5400z m4996 1652 c225 -61 354 -228 354 -461 0 -111 -19 -184 -77 -298 -25
-51 -45 -94 -42 -96 2 -2 41 -29 86 -60 326 -227 530 -500 615 -824 30 -113
31 -127 32 -323 1 -193 -1 -211 -26 -301 -115 -410 -412 -749 -843 -960 -183
-89 -449 -169 -567 -169 -85 0 -78 -111 -78 1250 0 663 3 1215 6 1228 11 39
47 38 170 -8 70 -26 120 -51 129 -63 13 -19 15 -164 15 -1078 0 -920 2 -1058
15 -1069 36 -30 326 148 460 284 174 177 282 376 345 636 31 126 34 361 7 490
-60 279 -204 519 -423 705 -113 96 -231 162 -454 250 -151 60 -234 102 -249
127 -18 28 -27 359 -16 552 10 171 12 173 220 207 76 12 242 3 321 -19z m-747
-11 c41 -6 60 -15 78 -35 l24 -28 -3 -363 c-2 -226 -7 -368 -13 -374 -13 -12
-269 233 -284 272 -6 16 -11 103 -11 203 0 161 -2 176 -20 194 -26 26 -109 27
-165 1 -98 -44 -144 -114 -145 -216 0 -119 67 -207 350 -460 141 -126 257
-244 273 -278 16 -32 17 -131 17 -1198 0 -1068 -1 -1164 -17 -1181 -20 -22
-50 -23 -145 -3 -230 48 -468 139 -637 244 -320 198 -562 498 -660 816 -43
143 -53 212 -53 365 0 201 37 360 125 540 97 195 189 306 440 523 85 73 110
81 151 45 32 -30 106 -120 106 -131 0 -5 -33 -41 -72 -80 -102 -101 -131 -136
-189 -224 -245 -376 -271 -842 -69 -1243 122 -241 328 -446 580 -575 60 -30
113 -55 119 -55 8 0 11 284 11 976 0 960 0 977 -20 1009 -11 18 -39 48 -62 66
-268 215 -426 407 -479 581 -23 76 -25 201 -4 280 45 174 145 281 309 330 53
16 85 17 236 13 96 -3 199 -9 229 -14z"/>
<path d="M4786 6898 c-13 -19 -16 -60 -16 -248 0 -244 3 -260 56 -280 34 -13
61 0 119 56 149 145 187 251 131 369 -39 83 -110 124 -213 125 -53 0 -64 -3
-77 -22z"/>
</g>
</svg>
